<svg width="78" height="58" viewBox="0 0 78 58" fill="none" xmlns="http://www.w3.org/2000/svg">
<path d="M50.0678 4.45752H27.7627C26.0029 4.45752 24.5763 5.88414 24.5763 7.64396V29.949C24.5763 31.7089 26.0029 33.1355 27.7627 33.1355H50.0678C51.8276 33.1355 53.2543 31.7089 53.2543 29.949V7.64396C53.2543 5.88414 51.8276 4.45752 50.0678 4.45752Z" stroke="url(#paint0_linear)" stroke-width="2.38983" stroke-linecap="round" stroke-linejoin="round"/>
<path d="M45.2881 1.27124V7.64412" stroke="url(#paint1_linear)" stroke-width="2.38983" stroke-linecap="round" stroke-linejoin="round"/>
<path d="M32.5424 1.27124V7.64412" stroke="url(#paint2_linear)" stroke-width="2.38983" stroke-linecap="round" stroke-linejoin="round"/>
<path d="M24.5763 14.0168H53.2543" stroke="url(#paint3_linear)" stroke-width="2.38983" stroke-linecap="round" stroke-linejoin="round"/>
<path d="M19.0451 52.3761C18.9424 53.4637 18.541 54.3132 17.8409 54.9247C17.1407 55.5315 16.2095 55.8349 15.0473 55.8349C14.2351 55.8349 13.5186 55.6435 12.8979 55.2607C12.2817 54.8733 11.8056 54.3249 11.4696 53.6154C11.1335 52.9059 10.9585 52.0821 10.9444 51.1439V50.1917C10.9444 49.2301 11.1148 48.383 11.4556 47.6502C11.7963 46.9173 12.2841 46.3525 12.9189 45.9558C13.5583 45.559 14.2958 45.3607 15.1313 45.3607C16.2562 45.3607 17.1617 45.6664 17.8479 46.2779C18.534 46.8893 18.9331 47.7528 19.0451 48.8684H17.2808C17.1967 48.1356 16.982 47.6081 16.6366 47.2861C16.2959 46.9593 15.7941 46.796 15.1313 46.796C14.3612 46.796 13.7684 47.0784 13.3529 47.6431C12.9422 48.2033 12.7322 49.0271 12.7228 50.1147V51.0179C12.7228 52.1194 12.9189 52.9596 13.3109 53.5384C13.7077 54.1172 14.2865 54.4066 15.0473 54.4066C15.7428 54.4066 16.2656 54.2502 16.6156 53.9375C16.9657 53.6247 17.1874 53.1043 17.2808 52.3761H19.0451ZM24.9964 55.6948C24.9217 55.5501 24.8563 55.3144 24.8003 54.9877C24.2589 55.5525 23.5961 55.8349 22.8119 55.8349C22.0511 55.8349 21.4303 55.6178 20.9495 55.1837C20.4688 54.7496 20.2284 54.2128 20.2284 53.5734C20.2284 52.7659 20.5271 52.1474 21.1246 51.718C21.7267 51.2839 22.5855 51.0669 23.7011 51.0669H24.7443V50.5698C24.7443 50.1777 24.6346 49.8649 24.4152 49.6316C24.1959 49.3935 23.8621 49.2745 23.414 49.2745C23.0266 49.2745 22.7092 49.3725 22.4618 49.5685C22.2145 49.7599 22.0908 50.005 22.0908 50.3037H20.3894C20.3894 49.8883 20.5271 49.5009 20.8025 49.1415C21.0779 48.7774 21.4513 48.4927 21.9227 48.2873C22.3988 48.0819 22.9286 47.9792 23.5121 47.9792C24.3989 47.9792 25.1061 48.2033 25.6335 48.6514C26.1609 49.0948 26.4317 49.7202 26.4457 50.5277V53.9445C26.4457 54.6259 26.5414 55.1697 26.7327 55.5758V55.6948H24.9964ZM23.127 54.4696C23.4631 54.4696 23.7781 54.3879 24.0722 54.2245C24.3709 54.0612 24.595 53.8418 24.7443 53.5664V52.1381H23.8271C23.197 52.1381 22.7232 52.2478 22.4058 52.4672C22.0884 52.6865 21.9297 52.9969 21.9297 53.3983C21.9297 53.7251 22.0371 53.9865 22.2518 54.1825C22.4712 54.3739 22.7629 54.4696 23.127 54.4696ZM30.0374 55.6948H28.3361V44.9406H30.0374V55.6948ZM35.2325 55.8349C34.1543 55.8349 33.2791 55.4964 32.607 54.8196C31.9395 54.1382 31.6057 53.2326 31.6057 52.1031V51.893C31.6057 51.1369 31.7504 50.4624 32.0398 49.8696C32.3339 49.2722 32.7447 48.8077 33.2721 48.4763C33.7995 48.1449 34.3877 47.9792 35.0365 47.9792C36.068 47.9792 36.8638 48.3083 37.424 48.9664C37.9887 49.6246 38.2711 50.5558 38.2711 51.76V52.4461H33.3211C33.3724 53.0716 33.5802 53.5664 33.9442 53.9305C34.313 54.2945 34.7751 54.4766 35.3305 54.4766C36.11 54.4766 36.7448 54.1615 37.2349 53.5314L38.1521 54.4066C37.8487 54.8593 37.4426 55.2117 36.9339 55.4638C36.4298 55.7112 35.8626 55.8349 35.2325 55.8349ZM35.0295 49.3445C34.5627 49.3445 34.1846 49.5079 33.8952 49.8346C33.6105 50.1613 33.4285 50.6164 33.3491 51.1999H36.5908V51.0739C36.5534 50.5044 36.4017 50.075 36.1357 49.7856C35.8696 49.4915 35.5009 49.3445 35.0295 49.3445ZM41.1767 48.1192L41.2257 48.9944C41.7859 48.3176 42.521 47.9792 43.4312 47.9792C45.0089 47.9792 45.8117 48.8824 45.8397 50.6888V55.6948H44.1384V50.7868C44.1384 50.306 44.0333 49.9513 43.8233 49.7226C43.6179 49.4892 43.2795 49.3725 42.8081 49.3725C42.1219 49.3725 41.6108 49.6829 41.2748 50.3037V55.6948H39.5734V48.1192H41.1767ZM47.261 51.851C47.261 50.6841 47.5317 49.7483 48.0732 49.0434C48.6146 48.334 49.3404 47.9792 50.2506 47.9792C51.0535 47.9792 51.7023 48.2593 52.197 48.8194V44.9406H53.8984V55.6948H52.3581L52.274 54.9107C51.7653 55.5268 51.0861 55.8349 50.2366 55.8349C49.3498 55.8349 48.631 55.4778 48.0802 54.7636C47.5341 54.0495 47.261 53.0786 47.261 51.851ZM48.9624 51.9981C48.9624 52.7682 49.1094 53.3703 49.4034 53.8044C49.7022 54.2339 50.1246 54.4486 50.6707 54.4486C51.3662 54.4486 51.875 54.1382 52.197 53.5174V50.2827C51.8843 49.6759 51.3802 49.3725 50.6847 49.3725C50.1339 49.3725 49.7092 49.5919 49.4104 50.0306C49.1117 50.4647 48.9624 51.1205 48.9624 51.9981ZM60.1997 55.6948C60.125 55.5501 60.0597 55.3144 60.0037 54.9877C59.4622 55.5525 58.7994 55.8349 58.0152 55.8349C57.2544 55.8349 56.6336 55.6178 56.1529 55.1837C55.6721 54.7496 55.4317 54.2128 55.4317 53.5734C55.4317 52.7659 55.7304 52.1474 56.3279 51.718C56.93 51.2839 57.7889 51.0669 58.9044 51.0669H59.9476V50.5698C59.9476 50.1777 59.838 49.8649 59.6186 49.6316C59.3992 49.3935 59.0655 49.2745 58.6174 49.2745C58.23 49.2745 57.9126 49.3725 57.6652 49.5685C57.4178 49.7599 57.2941 50.005 57.2941 50.3037H55.5927C55.5927 49.8883 55.7304 49.5009 56.0058 49.1415C56.2812 48.7774 56.6546 48.4927 57.1261 48.2873C57.6022 48.0819 58.1319 47.9792 58.7154 47.9792C59.6022 47.9792 60.3094 48.2033 60.8368 48.6514C61.3643 49.0948 61.635 49.7202 61.649 50.5277V53.9445C61.649 54.6259 61.7447 55.1697 61.9361 55.5758V55.6948H60.1997ZM58.3303 54.4696C58.6664 54.4696 58.9814 54.3879 59.2755 54.2245C59.5742 54.0612 59.7983 53.8418 59.9476 53.5664V52.1381H59.0305C58.4003 52.1381 57.9266 52.2478 57.6092 52.4672C57.2918 52.6865 57.1331 52.9969 57.1331 53.3983C57.1331 53.7251 57.2404 53.9865 57.4551 54.1825C57.6745 54.3739 57.9662 54.4696 58.3303 54.4696ZM67.3972 49.6736C67.1731 49.6362 66.9421 49.6176 66.7041 49.6176C65.9246 49.6176 65.3994 49.9163 65.1287 50.5137V55.6948H63.4274V48.1192H65.0517L65.0937 48.9664C65.5045 48.3083 66.0739 47.9792 66.8021 47.9792C67.0448 47.9792 67.2455 48.0119 67.4042 48.0772L67.3972 49.6736Z" fill="#4945D0"/>
<defs>
<linearGradient id="paint0_linear" x1="38.9153" y1="4.45752" x2="38.9153" y2="33.1355" gradientUnits="userSpaceOnUse">
<stop stop-color="#1382E0"/>
<stop offset="1" stop-color="#4945D0"/>
</linearGradient>
<linearGradient id="paint1_linear" x1="45.7881" y1="1.27124" x2="45.7881" y2="7.64412" gradientUnits="userSpaceOnUse">
<stop stop-color="#1382E0"/>
<stop offset="1" stop-color="#4945D0"/>
</linearGradient>
<linearGradient id="paint2_linear" x1="33.0424" y1="1.27124" x2="33.0424" y2="7.64412" gradientUnits="userSpaceOnUse">
<stop stop-color="#1382E0"/>
<stop offset="1" stop-color="#4945D0"/>
</linearGradient>
<linearGradient id="paint3_linear" x1="38.9153" y1="14.0168" x2="38.9153" y2="15.0168" gradientUnits="userSpaceOnUse">
<stop stop-color="#1382E0"/>
<stop offset="1" stop-color="#4945D0"/>
</linearGradient>
</defs>
</svg>
