<svg width="70" height="54" viewBox="0 0 70 54" fill="none" xmlns="http://www.w3.org/2000/svg">
<rect x="23.0143" y="5.76611" width="3.01429" height="2.42553" stroke="url(#paint0_linear)" stroke-width="2"/>
<line x1="29.8143" y1="7.17017" x2="50.8" y2="7.17017" stroke="url(#paint1_linear)" stroke-width="2"/>
<path d="M23.0143 21.9363H26.0286V24.3618H23.0143V21.9363Z" stroke="url(#paint2_linear)" stroke-width="2"/>
<line x1="29.8143" y1="23.3403" x2="50.8" y2="23.3403" stroke="url(#paint3_linear)" stroke-width="2"/>
<rect x="23.0143" y="13.4255" width="3.01429" height="2.42553" stroke="url(#paint4_linear)" stroke-width="2"/>
<line x1="29.8143" y1="14.6597" x2="50.8" y2="14.6597" stroke="url(#paint5_linear)" stroke-width="2"/>
<rect x="18" y="1" width="37" height="30" stroke="url(#paint6_linear)" stroke-width="2"/>
<path d="M27.9215 53H26.2202V42.2458H27.9215V53ZM31.5903 53H29.8889V45.4244H31.5903V53ZM29.7839 43.457C29.7839 43.1956 29.8656 42.9786 30.029 42.8059C30.197 42.6332 30.4351 42.5468 30.7431 42.5468C31.0512 42.5468 31.2892 42.6332 31.4573 42.8059C31.6253 42.9786 31.7093 43.1956 31.7093 43.457C31.7093 43.7137 31.6253 43.9284 31.4573 44.1011C31.2892 44.2692 31.0512 44.3532 30.7431 44.3532C30.4351 44.3532 30.197 44.2692 30.029 44.1011C29.8656 43.9284 29.7839 43.7137 29.7839 43.457ZM37.6956 50.9416C37.6956 50.6382 37.5695 50.4071 37.3175 50.2484C37.0701 50.0897 36.657 49.9497 36.0782 49.8283C35.4994 49.707 35.0163 49.5529 34.6289 49.3662C33.7794 48.9555 33.3547 48.3604 33.3547 47.5809C33.3547 46.9274 33.63 46.3813 34.1808 45.9425C34.7316 45.5038 35.4318 45.2844 36.2813 45.2844C37.1868 45.2844 37.9173 45.5084 38.4727 45.9565C39.0328 46.4046 39.3129 46.9857 39.3129 47.6999H37.6115C37.6115 47.3732 37.4902 47.1024 37.2475 46.8877C37.0048 46.6683 36.6827 46.5587 36.2813 46.5587C35.9079 46.5587 35.6021 46.645 35.3641 46.8177C35.1307 46.9904 35.014 47.2215 35.014 47.5109C35.014 47.7722 35.1237 47.9753 35.3431 48.12C35.5624 48.2647 36.0059 48.4117 36.6733 48.5611C37.3408 48.7058 37.8636 48.8808 38.2417 49.0862C38.6244 49.2869 38.9068 49.5296 39.0889 49.8143C39.2756 50.0991 39.3689 50.4445 39.3689 50.8506C39.3689 51.532 39.0865 52.0851 38.5217 52.5099C37.9569 52.93 37.2171 53.14 36.3023 53.14C35.6815 53.14 35.1284 53.028 34.6429 52.804C34.1575 52.5799 33.7794 52.2718 33.5087 51.8798C33.238 51.4877 33.1026 51.0653 33.1026 50.6125H34.7549C34.7783 51.0139 34.93 51.3243 35.21 51.5437C35.4901 51.7584 35.8612 51.8658 36.3233 51.8658C36.7714 51.8658 37.1121 51.7817 37.3455 51.6137C37.5789 51.441 37.6956 51.217 37.6956 50.9416ZM42.9887 43.583V45.4244H44.3259V46.6847H42.9887V50.9136C42.9887 51.203 43.0447 51.413 43.1567 51.5437C43.2734 51.6697 43.4788 51.7327 43.7728 51.7327C43.9689 51.7327 44.1672 51.7094 44.368 51.6627V52.979C43.9805 53.0864 43.6071 53.14 43.2477 53.14C41.9408 53.14 41.2873 52.4189 41.2873 50.9766V46.6847H40.0411V45.4244H41.2873V43.583H42.9887Z" fill="#4945D0"/>
<defs>
<linearGradient id="paint0_linear" x1="22.0143" y1="7.2342" x2="26.5643" y2="7.2342" gradientUnits="userSpaceOnUse">
<stop stop-color="#1481DF"/>
<stop offset="1" stop-color="#4548D1"/>
</linearGradient>
<linearGradient id="paint1_linear" x1="29.8143" y1="8.17017" x2="50.8" y2="8.17017" gradientUnits="userSpaceOnUse">
<stop stop-color="#167EDF"/>
<stop offset="1" stop-color="#434BD1"/>
</linearGradient>
<linearGradient id="paint2_linear" x1="21.3643" y1="24.9363" x2="25.9143" y2="24.9363" gradientUnits="userSpaceOnUse">
<stop stop-color="#1481DF"/>
<stop offset="1" stop-color="#4548D1"/>
</linearGradient>
<linearGradient id="paint3_linear" x1="29.8143" y1="24.3403" x2="50.8" y2="24.3403" gradientUnits="userSpaceOnUse">
<stop stop-color="#167EDF"/>
<stop offset="1" stop-color="#434BD1"/>
</linearGradient>
<linearGradient id="paint4_linear" x1="22.0143" y1="14.8936" x2="26.5643" y2="14.8936" gradientUnits="userSpaceOnUse">
<stop stop-color="#1481DF"/>
<stop offset="1" stop-color="#4548D1"/>
</linearGradient>
<linearGradient id="paint5_linear" x1="29.8143" y1="15.6597" x2="50.8" y2="15.6597" gradientUnits="userSpaceOnUse">
<stop stop-color="#167EDF"/>
<stop offset="1" stop-color="#434BD1"/>
</linearGradient>
<linearGradient id="paint6_linear" x1="17" y1="16.766" x2="55.9996" y2="16.462" gradientUnits="userSpaceOnUse">
<stop stop-color="#157FDE"/>
<stop offset="1" stop-color="#4548D1"/>
</linearGradient>
</defs>
</svg>
