<svg width="78" height="56" viewBox="0 0 78 56" fill="none" xmlns="http://www.w3.org/2000/svg">
<path fill-rule="evenodd" clip-rule="evenodd" d="M39.2203 1.21216C33.9495 1.21216 29.661 4.51087 29.661 8.56549C29.661 11.3536 31.6578 13.863 34.8762 15.1222C34.8877 15.1273 34.8995 15.1323 34.9114 15.1369C36.8255 15.881 37.8337 16.214 38.8016 16.5337L38.8248 16.5413C39.8807 16.8899 40.8778 17.2193 42.9867 18.0693C42.9986 18.074 43.0105 18.0784 43.0225 18.0824C45.6671 19.1164 47.309 21.1029 47.309 23.2722C47.309 26.5165 43.6794 29.1549 39.2203 29.1549C34.7613 29.1549 31.1317 26.5165 31.1317 23.2722C31.1317 22.8663 30.8023 22.5369 30.3964 22.5369C29.9905 22.5369 29.661 22.8663 29.661 23.2722C29.661 27.3268 33.9495 30.6256 39.2203 30.6256C44.4912 30.6256 48.7797 27.3268 48.7797 23.2722C48.7797 20.4735 46.7678 17.9558 43.5264 16.7028C43.5155 16.6985 43.5046 16.6945 43.4936 16.6907C41.3735 15.8367 40.359 15.5017 39.2897 15.1487L39.2851 15.1472C38.3358 14.8336 37.3547 14.5085 35.493 13.7862C35.4773 13.7789 35.4614 13.772 35.4451 13.7657C32.7846 12.7347 31.1316 10.742 31.1316 8.56542C31.1317 5.32116 34.7613 2.6828 39.2203 2.6828C43.6794 2.6828 47.3089 5.32116 47.3089 8.56542C47.3089 8.97132 47.6384 9.30077 48.0443 9.30077C48.4502 9.30077 48.7797 8.97132 48.7797 8.56542C48.7797 4.5108 44.4912 1.21216 39.2203 1.21216Z" fill="url(#paint0_linear)"/>
<path d="M34.8762 15.1222L35.0394 14.7588L35.0305 14.7548L35.0213 14.7512L34.8762 15.1222ZM34.9114 15.1369L34.7669 15.5081L34.767 15.5081L34.9114 15.1369ZM38.8016 16.5337L38.9265 16.1555L38.9265 16.1555L38.8016 16.5337ZM38.8248 16.5413L38.6999 16.9196L38.6999 16.9196L38.8248 16.5413ZM42.9867 18.0693L42.8378 18.4388L42.8409 18.44L42.9867 18.0693ZM43.0225 18.0824L43.1675 17.7115L43.1589 17.7081L43.1502 17.7052L43.0225 18.0824ZM47.309 23.2722L47.7073 23.2722V23.2722H47.309ZM43.5264 16.7028L43.3807 17.0735L43.3828 17.0743L43.5264 16.7028ZM43.4936 16.6907L43.3447 17.0602L43.355 17.0643L43.3655 17.0679L43.4936 16.6907ZM39.2897 15.1487L39.1648 15.5269L39.1648 15.5269L39.2897 15.1487ZM39.2851 15.1472L39.41 14.769L39.41 14.769L39.2851 15.1472ZM35.493 13.7862L35.3236 14.1467L35.3361 14.1526L35.3489 14.1575L35.493 13.7862ZM35.4451 13.7657L35.3011 14.1371L35.3011 14.1371L35.4451 13.7657ZM31.1316 8.56542L30.7333 8.5654V8.56542H31.1316ZM30.0593 8.56549C30.0593 6.68774 31.0515 4.9575 32.7069 3.68405C34.3627 2.41039 36.6654 1.61046 39.2203 1.61046V0.813853C36.5044 0.813853 34.0274 1.66328 32.2212 3.05264C30.4148 4.4422 29.2627 6.38862 29.2627 8.56549H30.0593ZM35.0213 14.7512C31.9095 13.5338 30.0593 11.1452 30.0593 8.56549H29.2627C29.2627 11.562 31.406 14.1922 34.7311 15.4931L35.0213 14.7512ZM34.713 15.4855C34.7307 15.4934 34.7487 15.501 34.7669 15.5081L35.0558 14.7657C35.0502 14.7635 35.0448 14.7613 35.0394 14.7588L34.713 15.4855ZM34.767 15.5081C36.69 16.2556 37.7052 16.591 38.6766 16.9119L38.9265 16.1555C37.9621 15.8369 36.961 15.5063 35.0557 14.7656L34.767 15.5081ZM38.6766 16.9119L38.6999 16.9196L38.9497 16.1631L38.9265 16.1555L38.6766 16.9119ZM38.6999 16.9196C39.7507 17.2664 40.7393 17.5929 42.8378 18.4388L43.1356 17.6999C41.0163 16.8457 40.0107 16.5134 38.9496 16.1631L38.6999 16.9196ZM42.8409 18.44C42.8587 18.447 42.8766 18.4535 42.8947 18.4597L43.1502 17.7052C43.1444 17.7032 43.1385 17.701 43.1326 17.6987L42.8409 18.44ZM47.7073 23.2722C47.7073 20.8842 45.9066 18.7823 43.1675 17.7115L42.8774 18.4534C45.4277 19.4504 46.9107 21.3217 46.9107 23.2722H47.7073ZM39.2203 29.5532C41.5252 29.5532 43.6314 28.8719 45.1711 27.7523C46.7102 26.6331 47.7073 25.0536 47.7073 23.2722L46.9107 23.2722C46.9107 24.7351 46.093 26.0969 44.7026 27.108C43.3127 28.1187 41.3746 28.7565 39.2203 28.7565V29.5532ZM30.7334 23.2722C30.7334 25.0536 31.7305 26.6331 33.2696 27.7523C34.8093 28.8719 36.9155 29.5532 39.2203 29.5532V28.7565C37.0661 28.7565 35.128 28.1187 33.7381 27.108C32.3477 26.0969 31.53 24.7351 31.53 23.2722H30.7334ZM30.3964 22.9352C30.5823 22.9352 30.7334 23.0863 30.7334 23.2722H31.53C31.53 22.6463 31.0223 22.1386 30.3964 22.1386V22.9352ZM30.0593 23.2722C30.0593 23.0863 30.2104 22.9352 30.3964 22.9352V22.1386C29.7705 22.1386 29.2627 22.6463 29.2627 23.2722H30.0593ZM39.2203 30.2273C36.6654 30.2273 34.3627 29.4273 32.707 28.1537C31.0515 26.8802 30.0593 25.15 30.0593 23.2722H29.2627C29.2627 25.4491 30.4148 27.3955 32.2213 28.7851C34.0274 30.1744 36.5044 31.0239 39.2203 31.0239V30.2273ZM48.3814 23.2722C48.3814 25.15 47.3892 26.8802 45.7337 28.1537C44.078 29.4273 41.7752 30.2273 39.2203 30.2273V31.0239C41.9363 31.0239 44.4133 30.1744 46.2194 28.7851C48.0259 27.3955 49.178 25.4491 49.178 23.2722H48.3814ZM43.3828 17.0743C46.5171 18.2859 48.3814 20.6828 48.3814 23.2722H49.178C49.178 20.2642 47.0185 17.6257 43.67 16.3313L43.3828 17.0743ZM43.3655 17.0679C43.3705 17.0696 43.3756 17.0715 43.3807 17.0735L43.6721 16.3321C43.6554 16.3255 43.6386 16.3193 43.6217 16.3136L43.3655 17.0679ZM43.6424 16.3213C41.5119 15.4631 40.4889 15.1252 39.4146 14.7705L39.1648 15.5269C40.2291 15.8783 41.2351 16.2104 43.3447 17.0602L43.6424 16.3213ZM39.4146 14.7705L39.41 14.769L39.1601 15.5254L39.1648 15.5269L39.4146 14.7705ZM39.41 14.769C38.4643 14.4566 37.4902 14.1339 35.637 13.4149L35.3489 14.1575C37.2191 14.8832 38.2072 15.2106 39.1602 15.5254L39.41 14.769ZM35.3011 14.1371C35.3088 14.1401 35.3163 14.1433 35.3236 14.1467L35.6623 13.4257C35.6384 13.4144 35.6139 13.404 35.589 13.3943L35.3011 14.1371ZM30.7333 8.56542C30.7333 10.9616 32.5462 13.0695 35.3011 14.1371L35.589 13.3943C33.0231 12.4 31.5299 10.5225 31.5299 8.56542H30.7333ZM39.2203 2.28449C36.9155 2.28449 34.8093 2.96578 33.2696 4.08537C31.7305 5.20454 30.7334 6.78403 30.7333 8.5654L31.5299 8.56544C31.5299 7.10255 32.3476 5.74073 33.7381 4.72965C35.128 3.71899 37.0661 3.0811 39.2203 3.0811V2.28449ZM47.7073 8.56542C47.7073 6.78404 46.7101 5.20454 45.171 4.08537C43.6314 2.96578 41.5252 2.28449 39.2203 2.28449V3.0811C41.3746 3.0811 43.3127 3.71899 44.7025 4.72965C46.093 5.74073 46.9106 7.10254 46.9106 8.56542H47.7073ZM48.0443 8.90247C47.8584 8.90247 47.7073 8.75134 47.7073 8.56542H46.9106C46.9106 9.1913 47.4184 9.69908 48.0443 9.69908V8.90247ZM48.3814 8.56542C48.3814 8.75134 48.2302 8.90247 48.0443 8.90247V9.69908C48.6702 9.69908 49.178 9.1913 49.178 8.56542H48.3814ZM39.2203 1.61046C41.7752 1.61046 44.078 2.41038 45.7337 3.68402C47.3892 4.95744 48.3814 6.68768 48.3814 8.56542H49.178C49.178 6.38855 48.0259 4.44215 46.2194 3.0526C44.4132 1.66326 41.9363 0.813853 39.2203 0.813853V1.61046Z" fill="url(#paint1_linear)"/>
<path d="M20.9045 42.5007L23.8451 50.3143L26.7787 42.5007H29.0682V52.6948H27.3038V49.3341L27.4789 44.8392L24.4683 52.6948H23.201L20.1974 44.8462L20.3724 49.3341V52.6948H18.608V42.5007H20.9045ZM30.6855 48.837C30.6855 48.0949 30.8326 47.4274 31.1266 46.8346C31.4207 46.2371 31.8338 45.7797 32.3659 45.4623C32.898 45.1403 33.5095 44.9792 34.2003 44.9792C35.2225 44.9792 36.051 45.3083 36.6858 45.9664C37.3253 46.6246 37.6707 47.4974 37.722 48.585L37.729 48.9841C37.729 49.7309 37.5843 50.3983 37.2949 50.9865C37.0102 51.5746 36.5994 52.0297 36.0627 52.3518C35.5306 52.6738 34.9144 52.8349 34.2143 52.8349C33.1454 52.8349 32.2889 52.4801 31.6447 51.7706C31.0053 51.0565 30.6855 50.1066 30.6855 48.921V48.837ZM32.3869 48.9841C32.3869 49.7635 32.5479 50.375 32.87 50.8184C33.1921 51.2572 33.6402 51.4766 34.2143 51.4766C34.7884 51.4766 35.2342 51.2525 35.5516 50.8044C35.8736 50.3563 36.0347 49.7005 36.0347 48.837C36.0347 48.0715 35.869 47.4647 35.5376 47.0166C35.2108 46.5685 34.7651 46.3445 34.2003 46.3445C33.6448 46.3445 33.2037 46.5662 32.877 47.0096C32.5503 47.4484 32.3869 48.1065 32.3869 48.9841ZM40.7466 45.1192L40.7956 45.9944C41.3558 45.3176 42.0909 44.9792 43.0011 44.9792C44.5788 44.9792 45.3816 45.8824 45.4096 47.6888V52.6948H43.7083V47.7868C43.7083 47.306 43.6032 46.9513 43.3932 46.7226C43.1878 46.4892 42.8494 46.3725 42.378 46.3725C41.6918 46.3725 41.1807 46.6829 40.8447 47.3037V52.6948H39.1433V45.1192H40.7466ZM50.4857 52.8349C49.4074 52.8349 48.5323 52.4964 47.8601 51.8196C47.1926 51.1382 46.8589 50.2326 46.8589 49.1031V48.893C46.8589 48.1369 47.0036 47.4624 47.293 46.8696C47.5871 46.2722 47.9978 45.8077 48.5253 45.4763C49.0527 45.1449 49.6408 44.9792 50.2896 44.9792C51.3212 44.9792 52.117 45.3083 52.6771 45.9664C53.2419 46.6246 53.5243 47.5558 53.5243 48.76V49.4461H48.5743C48.6256 50.0716 48.8333 50.5664 49.1974 50.9305C49.5661 51.2945 50.0282 51.4766 50.5837 51.4766C51.3632 51.4766 51.998 51.1615 52.4881 50.5314L53.4053 51.4066C53.1019 51.8593 52.6958 52.2117 52.187 52.4638C51.6829 52.7112 51.1158 52.8349 50.4857 52.8349ZM50.2826 46.3445C49.8159 46.3445 49.4378 46.5079 49.1484 46.8346C48.8637 47.1613 48.6816 47.6164 48.6023 48.1999H51.8439V48.0739C51.8066 47.5044 51.6549 47.075 51.3889 46.7856C51.1228 46.4915 50.7541 46.3445 50.2826 46.3445ZM57.4031 50.2583L58.9434 45.1192H60.7568L57.7462 53.8431C57.2841 55.1173 56.4999 55.7545 55.3937 55.7545C55.1463 55.7545 54.8732 55.7125 54.5745 55.6284V54.3122L54.8966 54.3332C55.326 54.3332 55.6481 54.2538 55.8628 54.0951C56.0822 53.9411 56.2549 53.6797 56.3809 53.311L56.6259 52.6598L53.9654 45.1192H55.7998L57.4031 50.2583Z" fill="#4945D0"/>
<defs>
<linearGradient id="paint0_linear" x1="39.2203" y1="1.21216" x2="39.2203" y2="30.6256" gradientUnits="userSpaceOnUse">
<stop stop-color="#1382E0"/>
<stop offset="1" stop-color="#4945D0"/>
</linearGradient>
<linearGradient id="paint1_linear" x1="39.2203" y1="1.21216" x2="39.2203" y2="30.6256" gradientUnits="userSpaceOnUse">
<stop stop-color="#1382E0"/>
<stop offset="1" stop-color="#4945D0"/>
</linearGradient>
</defs>
</svg>
