<svg width="78" height="57" viewBox="0 0 78 57" fill="none" xmlns="http://www.w3.org/2000/svg">
<path d="M45.8559 8.2371C45.8559 11.9767 42.8244 15.0083 39.0848 15.0083C35.3451 15.0083 32.3136 11.9767 32.3136 8.2371C32.3136 4.49747 35.3451 1.46591 39.0848 1.46591C42.8244 1.46591 45.8559 4.49747 45.8559 8.2371Z" stroke="url(#paint0_linear)" stroke-width="2.38983"/>
<mask id="path-2-inside-1" fill="white">
<path fill-rule="evenodd" clip-rule="evenodd" d="M55.0171 33.0914H23.1527C23.4245 25.1294 30.4536 18.7524 39.0849 18.7524C47.7162 18.7524 54.7453 25.1294 55.0171 33.0914Z"/>
</mask>
<path d="M23.1527 33.0914L20.7643 33.0099L20.6799 35.4813H23.1527V33.0914ZM55.0171 33.0914V35.4813H57.4899L57.4056 33.0099L55.0171 33.0914ZM23.1527 35.4813H55.0171V30.7016H23.1527V35.4813ZM25.5411 33.173C25.7639 26.6475 31.587 21.1423 39.0849 21.1423V16.3626C29.3201 16.3626 21.0851 23.6113 20.7643 33.0099L25.5411 33.173ZM39.0849 21.1423C46.5828 21.1423 52.4059 26.6475 52.6287 33.173L57.4056 33.0099C57.0847 23.6113 48.8497 16.3626 39.0849 16.3626V21.1423Z" fill="url(#paint1_linear)" mask="url(#path-2-inside-1)"/>
<path d="M20.972 50.907V54.6948H19.2006V44.5007H23.1004C24.2393 44.5007 25.1425 44.7971 25.81 45.3899C26.4821 45.9827 26.8182 46.7668 26.8182 47.7424C26.8182 48.7413 26.4891 49.5184 25.831 50.0739C25.1775 50.6293 24.2603 50.907 23.0794 50.907H20.972ZM20.972 49.4857H23.1004C23.7306 49.4857 24.2113 49.3387 24.5427 49.0446C24.8741 48.7459 25.0398 48.3165 25.0398 47.7564C25.0398 47.2056 24.8718 46.7668 24.5357 46.4401C24.1997 46.1087 23.7376 45.9383 23.1494 45.929H20.972V49.4857ZM32.1743 48.6736C31.9503 48.6362 31.7192 48.6176 31.4812 48.6176C30.7017 48.6176 30.1766 48.9163 29.9059 49.5137V54.6948H28.2045V47.1192H29.8288L29.8708 47.9664C30.2816 47.3083 30.8511 46.9792 31.5792 46.9792C31.8219 46.9792 32.0226 47.0119 32.1813 47.0772L32.1743 48.6736ZM32.6784 50.837C32.6784 50.0949 32.8255 49.4274 33.1195 48.8346C33.4136 48.2371 33.8267 47.7797 34.3588 47.4623C34.8909 47.1403 35.5024 46.9792 36.1932 46.9792C37.2154 46.9792 38.0439 47.3083 38.6787 47.9664C39.3181 48.6246 39.6635 49.4974 39.7149 50.585L39.7219 50.9841C39.7219 51.7309 39.5772 52.3983 39.2878 52.9865C39.0031 53.5746 38.5923 54.0297 38.0555 54.3518C37.5234 54.6738 36.9073 54.8349 36.2072 54.8349C35.1383 54.8349 34.2818 54.4801 33.6376 53.7706C32.9982 53.0565 32.6784 52.1066 32.6784 50.921V50.837ZM34.3798 50.9841C34.3798 51.7635 34.5408 52.375 34.8629 52.8184C35.185 53.2572 35.633 53.4766 36.2072 53.4766C36.7813 53.4766 37.227 53.2525 37.5444 52.8044C37.8665 52.3563 38.0275 51.7005 38.0275 50.837C38.0275 50.0715 37.8618 49.4647 37.5304 49.0166C37.2037 48.5685 36.7579 48.3445 36.1932 48.3445C35.6377 48.3445 35.1966 48.5662 34.8699 49.0096C34.5432 49.4484 34.3798 50.1065 34.3798 50.9841ZM41.6123 54.6948V48.3795H40.457V47.1192H41.6123V46.6011C41.617 46.0084 41.743 45.4996 41.9904 45.0748C42.2378 44.6501 42.5878 44.3303 43.0406 44.1156C43.4933 43.9009 44.0371 43.7936 44.6719 43.7936C45.0453 43.7936 45.4024 43.8332 45.7431 43.9126C46.0886 43.9919 46.4456 44.0923 46.8144 44.2136L46.5553 45.6209C45.9112 45.3969 45.3231 45.2849 44.7909 45.2849C44.2728 45.2849 43.8971 45.3992 43.6637 45.6279C43.4303 45.852 43.3136 46.1904 43.3136 46.6431V47.1192H44.805V48.3795H43.3136V54.6948H41.6123ZM47.6195 54.6948H45.9182V47.1192H47.6195V54.6948ZM51.3163 54.6948H49.615V43.9406H51.3163V54.6948ZM56.5114 54.8349C55.4332 54.8349 54.558 54.4964 53.8858 53.8196C53.2184 53.1382 52.8846 52.2326 52.8846 51.1031V50.893C52.8846 50.1369 53.0293 49.4624 53.3187 48.8696C53.6128 48.2722 54.0235 47.8077 54.551 47.4763C55.0784 47.1449 55.6665 46.9792 56.3153 46.9792C57.3469 46.9792 58.1427 47.3083 58.7028 47.9664C59.2676 48.6246 59.55 49.5558 59.55 50.76V51.4461H54.6C54.6513 52.0716 54.859 52.5664 55.2231 52.9305C55.5919 53.2945 56.054 53.4766 56.6094 53.4766C57.3889 53.4766 58.0237 53.1615 58.5138 52.5314L59.431 53.4066C59.1276 53.8593 58.7215 54.2117 58.2127 54.4638C57.7086 54.7112 57.1415 54.8349 56.5114 54.8349ZM56.3083 48.3445C55.8416 48.3445 55.4635 48.5079 55.1741 48.8346C54.8894 49.1613 54.7073 49.6164 54.628 50.1999H57.8697V50.0739C57.8323 49.5044 57.6806 49.075 57.4146 48.7856C57.1485 48.4915 56.7798 48.3445 56.3083 48.3445Z" fill="#4945D0"/>
<defs>
<linearGradient id="paint0_linear" x1="39.0848" y1="0.270996" x2="39.0848" y2="16.2032" gradientUnits="userSpaceOnUse">
<stop stop-color="#1382E0"/>
<stop offset="1" stop-color="#4945D0"/>
</linearGradient>
<linearGradient id="paint1_linear" x1="39.0849" y1="18.7524" x2="39.0849" y2="33.0914" gradientUnits="userSpaceOnUse">
<stop stop-color="#1382E0"/>
<stop offset="1" stop-color="#4945D0"/>
</linearGradient>
</defs>
</svg>
