<svg width="231" height="175" viewBox="0 0 231 175" fill="none" xmlns="http://www.w3.org/2000/svg">
<path d="M65.6675 25.2169L44.3052 35.1051V35.5716L65.6675 45.6463V58.2398H64.548L30.1258 40.3291V30.5342L64.548 12.6234H65.6675V25.2169Z" fill="#A5FFC3"/>
<path d="M120.991 12.9966H103.826V65.6093H89.367V12.9966H72.2025V0.309814H120.991V12.9966Z" fill="#A5FFC3"/>
<path d="M137.849 66.4489C132.625 66.4489 128.209 65.2984 124.602 62.9974C121.058 60.6963 118.415 57.6179 116.673 53.7621C114.932 49.9064 114.061 45.6152 114.061 40.8888C114.061 36.2246 114.932 31.9645 116.673 28.1088C118.415 24.1908 121.058 21.0813 124.602 18.7803C128.209 16.417 132.625 15.2354 137.849 15.2354C143.073 15.2354 147.457 16.3859 151.002 18.687C154.609 20.988 157.283 24.0975 159.025 28.0155C160.766 31.8713 161.637 36.1313 161.637 40.7955C161.637 45.4598 160.766 49.7509 159.025 53.6689C157.283 57.5246 154.609 60.6341 151.002 62.9974C147.457 65.2984 143.073 66.4489 137.849 66.4489ZM137.849 54.7883C141.083 54.7883 143.477 53.4512 145.032 50.777C146.587 48.1029 147.364 44.7446 147.364 40.7022C147.364 36.6599 146.587 33.3638 145.032 30.814C143.477 28.202 141.083 26.8961 137.849 26.8961C134.615 26.8961 132.221 28.202 130.666 30.814C129.111 33.426 128.334 36.7221 128.334 40.7022C128.334 44.7446 129.111 48.1029 130.666 50.777C132.283 53.4512 134.677 54.7883 137.849 54.7883Z" fill="#A5FFC3"/>
<path d="M193.632 66.4489C189.527 66.4489 186.356 65.5161 184.117 63.6504C181.878 61.7847 180.23 59.7946 179.173 57.6801H178.426V85.1059H163.781V16.2616H178.426V23.5378H179.173C180.043 21.6721 181.598 19.8375 183.837 18.034C186.138 16.1683 189.372 15.2354 193.539 15.2354C199.695 15.2354 204.422 17.5365 207.718 22.1385C211.076 26.7406 212.755 32.9907 212.755 40.8888C212.755 48.6626 211.076 54.8816 207.718 59.5458C204.422 64.1479 199.727 66.4489 193.632 66.4489ZM188.221 54.9749C191.58 54.9749 194.036 53.5756 195.591 50.777C197.208 47.9785 198.016 44.6824 198.016 40.8888C198.016 37.0952 197.208 33.8613 195.591 31.1872C194.036 28.4508 191.58 27.0826 188.221 27.0826C184.863 27.0826 182.376 28.4508 180.759 31.1872C179.204 33.9235 178.426 37.1574 178.426 40.8888C178.426 44.6824 179.235 47.9785 180.852 50.777C182.469 53.5756 184.925 54.9749 188.221 54.9749Z" fill="#A5FFC3"/>
<path d="M19.9833 156.623C13.8887 156.623 9.16223 154.322 5.80397 149.72C2.5079 145.056 0.859863 138.837 0.859863 131.063C0.859863 123.165 2.5079 116.915 5.80397 112.312C9.16223 107.71 13.9198 105.409 20.0766 105.409C24.2433 105.409 27.4461 106.342 29.6849 108.208C31.986 110.011 33.5718 111.846 34.4425 113.712H35.1888V85.7262H49.8345V155.783H35.1888V147.854H34.4425C33.3853 149.969 31.7372 151.959 29.4984 153.824C27.2595 155.69 24.0878 156.623 19.9833 156.623ZM25.3938 145.149C28.6899 145.149 31.1464 143.75 32.7633 140.951C34.4425 138.152 35.2821 134.856 35.2821 131.063C35.2821 127.331 34.4736 124.097 32.8566 121.361C31.2397 118.625 28.7521 117.257 25.3938 117.257C22.0356 117.257 19.548 118.625 17.931 121.361C16.3763 124.035 15.5989 127.269 15.5989 131.063C15.5989 134.856 16.3763 138.152 17.931 140.951C19.548 143.75 22.0356 145.149 25.3938 145.149Z" fill="#A5FFC3"/>
<path d="M75.7029 156.623C70.4789 156.623 66.0634 155.441 62.4564 153.078C58.9116 150.653 56.2685 147.512 54.5272 143.656C52.848 139.738 52.0085 135.54 52.0085 131.063C52.0085 126.585 52.848 122.418 54.5272 118.563C56.2685 114.645 58.9116 111.473 62.4564 109.047C66.0634 106.622 70.5411 105.409 75.8894 105.409C82.8547 105.409 88.3896 107.617 92.4942 112.033C96.5987 116.386 98.651 122.729 98.651 131.063V135.074H66.0012V135.82C66.0012 138.37 66.8719 140.578 68.6132 142.444C70.4167 144.247 72.6867 145.149 75.423 145.149C77.5375 145.149 79.341 144.682 80.8336 143.75C82.3261 142.754 83.3833 141.448 84.0052 139.832H98.2779C97.0341 144.745 94.4532 148.787 90.5352 151.959C86.6794 155.068 81.7353 156.623 75.7029 156.623ZM84.7515 125.745C84.6894 122.387 83.8187 119.9 82.1396 118.283C80.5226 116.666 78.346 115.857 75.6096 115.857C72.811 115.857 70.5722 116.728 68.8931 118.469C67.2761 120.211 66.4366 122.636 66.3744 125.745H84.7515Z" fill="#A5FFC3"/>
<path d="M96.7299 106.435H110.35L121.171 141.138H121.73L132.272 106.435H145.984L130.033 155.783H112.588L96.7299 106.435Z" fill="#A5FFC3"/>
<path d="M175.893 82.7411H189.513L157.05 175H143.43L175.893 82.7411Z" fill="#A5FFC3"/>
<path d="M196.411 102.797L230.833 120.708V130.503L196.411 148.414H195.291V135.82L216.747 125.745V125.279L195.291 115.391V102.797H196.411Z" fill="#A5FFC3"/>
</svg>
